<mxfile host="65bd71144e">
    <diagram id="C56EoUbyVBaUdMWM-LHC" name="Page-1">
        <mxGraphModel dx="1483" dy="784" grid="1" gridSize="10" guides="1" tooltips="1" connect="1" arrows="1" fold="1" page="1" pageScale="1" pageWidth="1200" pageHeight="1100" math="0" shadow="0">
            <root>
                <mxCell id="0"/>
                <mxCell id="1" parent="0"/>
                <mxCell id="actor_user" value="User" style="shape=umlActor;verticalLabelPosition=bottom;verticalAlign=top;html=1;" vertex="1" parent="1">
                    <mxGeometry x="50" y="80" width="30" height="60" as="geometry"/>
                </mxCell>
                <mxCell id="UI_class" value="&lt;b&gt;:Blade Template&lt;/b&gt;" style="html=1;whiteSpace=wrap;" vertex="1" parent="1">
                    <mxGeometry x="150" y="80" width="120" height="50" as="geometry"/>
                </mxCell>
                <mxCell id="Register_controller_class" value="&lt;b&gt;:RegisteredUserController&lt;/b&gt;" style="html=1;whiteSpace=wrap;" vertex="1" parent="1">
                    <mxGeometry x="320" y="80" width="180" height="50" as="geometry"/>
                </mxCell>
                <mxCell id="Login_controller_class" value="&lt;b&gt;:AuthenticatedSessionController&lt;/b&gt;" style="html=1;whiteSpace=wrap;" vertex="1" parent="1">
                    <mxGeometry x="550" y="80" width="200" height="50" as="geometry"/>
                </mxCell>
                <mxCell id="LoginRequest_class" value="&lt;b&gt;:LoginRequest&lt;/b&gt;" style="html=1;whiteSpace=wrap;" vertex="1" parent="1">
                    <mxGeometry x="800" y="80" width="120" height="50" as="geometry"/>
                </mxCell>
                <mxCell id="User_class" value="&lt;b&gt;:User Model&lt;/b&gt;" style="html=1;whiteSpace=wrap;" vertex="1" parent="1">
                    <mxGeometry x="970" y="80" width="100" height="50" as="geometry"/>
                </mxCell>
                <mxCell id="Auth_class" value="&lt;b&gt;:Auth Facade&lt;/b&gt;" style="html=1;whiteSpace=wrap;" vertex="1" parent="1">
                    <mxGeometry x="1120" y="80" width="100" height="50" as="geometry"/>
                </mxCell>                <!-- Lifelines -->
                <mxCell id="User_line" value="" style="html=1;points=[];perimeter=orthogonalPerimeter;outlineConnect=0;targetShapes=umlLifeline;portConstraint=eastwest;newEdgeStyle={&quot;edgeStyle&quot;:&quot;elbowEdgeStyle&quot;,&quot;elbow&quot;:&quot;vertical&quot;,&quot;curved&quot;:0,&quot;rounded&quot;:0};" vertex="1" parent="1">
                    <mxGeometry x="65" y="160" width="10" height="900" as="geometry"/>
                </mxCell>
                <mxCell id="UI_line" value="" style="html=1;points=[];perimeter=orthogonalPerimeter;outlineConnect=0;targetShapes=umlLifeline;portConstraint=eastwest;newEdgeStyle={&quot;edgeStyle&quot;:&quot;elbowEdgeStyle&quot;,&quot;elbow&quot;:&quot;vertical&quot;,&quot;curved&quot;:0,&quot;rounded&quot;:0};" vertex="1" parent="1">
                    <mxGeometry x="205" y="160" width="10" height="890" as="geometry"/>
                </mxCell>
                <mxCell id="Register_controller_line" value="" style="html=1;points=[];perimeter=orthogonalPerimeter;outlineConnect=0;targetShapes=umlLifeline;portConstraint=eastwest;newEdgeStyle={&quot;edgeStyle&quot;:&quot;elbowEdgeStyle&quot;,&quot;elbow&quot;:&quot;vertical&quot;,&quot;curved&quot;:0,&quot;rounded&quot;:0};" vertex="1" parent="1">
                    <mxGeometry x="405" y="160" width="10" height="350" as="geometry"/>
                </mxCell>
                <mxCell id="Login_controller_line" value="" style="html=1;points=[];perimeter=orthogonalPerimeter;outlineConnect=0;targetShapes=umlLifeline;portConstraint=eastwest;newEdgeStyle={&quot;edgeStyle&quot;:&quot;elbowEdgeStyle&quot;,&quot;elbow&quot;:&quot;vertical&quot;,&quot;curved&quot;:0,&quot;rounded&quot;:0};" vertex="1" parent="1">
                    <mxGeometry x="645" y="160" width="10" height="750" as="geometry"/>
                </mxCell>
                <mxCell id="LoginRequest_line" value="" style="html=1;points=[];perimeter=orthogonalPerimeter;outlineConnect=0;targetShapes=umlLifeline;portConstraint=eastwest;newEdgeStyle={&quot;edgeStyle&quot;:&quot;elbowEdgeStyle&quot;,&quot;elbow&quot;:&quot;vertical&quot;,&quot;curved&quot;:0,&quot;rounded&quot;:0};" vertex="1" parent="1">
                    <mxGeometry x="855" y="160" width="10" height="700" as="geometry"/>
                </mxCell>
                <mxCell id="User_class_line" value="" style="html=1;points=[];perimeter=orthogonalPerimeter;outlineConnect=0;targetShapes=umlLifeline;portConstraint=eastwest;newEdgeStyle={&quot;edgeStyle&quot;:&quot;elbowEdgeStyle&quot;,&quot;elbow&quot;:&quot;vertical&quot;,&quot;curved&quot;:0,&quot;rounded&quot;:0};" vertex="1" parent="1">
                    <mxGeometry x="1015" y="160" width="10" height="680" as="geometry"/>
                </mxCell>
                <mxCell id="Auth_line" value="" style="html=1;points=[];perimeter=orthogonalPerimeter;outlineConnect=0;targetShapes=umlLifeline;portConstraint=eastwest;newEdgeStyle={&quot;edgeStyle&quot;:&quot;elbowEdgeStyle&quot;,&quot;elbow&quot;:&quot;vertical&quot;,&quot;curved&quot;:0,&quot;rounded&quot;:0};" vertex="1" parent="1">
                    <mxGeometry x="1165" y="160" width="10" height="660" as="geometry"/>
                </mxCell>
                
                <!-- Lifeline connectors -->
                <mxCell id="User_to_line" value="" style="endArrow=none;dashed=1;html=1;rounded=0;exitX=0.5;exitY=1;exitDx=0;exitDy=0;entryX=0.5;entryY=0;entryDx=0;entryDy=0;" edge="1" parent="1" source="actor_user" target="User_line">
                    <mxGeometry width="50" height="50" relative="1" as="geometry">
                        <mxPoint x="390" y="340" as="sourcePoint"/>
                        <mxPoint x="440" y="290" as="targetPoint"/>
                    </mxGeometry>
                </mxCell>
                <mxCell id="UI_class_to_line" value="" style="endArrow=none;dashed=1;html=1;rounded=0;exitX=0.5;exitY=1;exitDx=0;exitDy=0;entryX=0.5;entryY=0;entryDx=0;entryDy=0;" edge="1" parent="1" source="UI_class" target="UI_line">
                    <mxGeometry width="50" height="50" relative="1" as="geometry">
                        <mxPoint x="390" y="340" as="sourcePoint"/>
                        <mxPoint x="440" y="290" as="targetPoint"/>
                    </mxGeometry>
                </mxCell>
                <mxCell id="Register_controller_to_line" value="" style="endArrow=none;dashed=1;html=1;rounded=0;exitX=0.5;exitY=1;exitDx=0;exitDy=0;entryX=0.5;entryY=0;entryDx=0;entryDy=0;" edge="1" parent="1" source="Register_controller_class" target="Register_controller_line">
                    <mxGeometry width="50" height="50" relative="1" as="geometry">
                        <mxPoint x="390" y="340" as="sourcePoint"/>
                        <mxPoint x="440" y="290" as="targetPoint"/>
                    </mxGeometry>
                </mxCell>
                <mxCell id="Login_controller_to_line" value="" style="endArrow=none;dashed=1;html=1;rounded=0;exitX=0.5;exitY=1;exitDx=0;exitDy=0;entryX=0.5;entryY=0;entryDx=0;entryDy=0;" edge="1" parent="1" source="Login_controller_class" target="Login_controller_line">
                    <mxGeometry width="50" height="50" relative="1" as="geometry">
                        <mxPoint x="390" y="340" as="sourcePoint"/>
                        <mxPoint x="440" y="290" as="targetPoint"/>
                    </mxGeometry>
                </mxCell>
                <mxCell id="LoginRequest_to_line" value="" style="endArrow=none;dashed=1;html=1;rounded=0;exitX=0.5;exitY=1;exitDx=0;exitDy=0;entryX=0.5;entryY=0;entryDx=0;entryDy=0;" edge="1" parent="1" source="LoginRequest_class" target="LoginRequest_line">
                    <mxGeometry width="50" height="50" relative="1" as="geometry">
                        <mxPoint x="390" y="340" as="sourcePoint"/>
                        <mxPoint x="440" y="290" as="targetPoint"/>
                    </mxGeometry>
                </mxCell>
                <mxCell id="User_class_to_line" value="" style="endArrow=none;dashed=1;html=1;rounded=0;exitX=0.5;exitY=1;exitDx=0;exitDy=0;entryX=0.5;entryY=0;entryDx=0;entryDy=0;" edge="1" parent="1" source="User_class" target="User_class_line">
                    <mxGeometry width="50" height="50" relative="1" as="geometry">
                        <mxPoint x="390" y="340" as="sourcePoint"/>
                        <mxPoint x="440" y="290" as="targetPoint"/>
                    </mxGeometry>
                </mxCell>
                <mxCell id="Auth_to_line" value="" style="endArrow=none;dashed=1;html=1;rounded=0;exitX=0.5;exitY=1;exitDx=0;exitDy=0;entryX=0.5;entryY=0;entryDx=0;entryDy=0;" edge="1" parent="1" source="Auth_class" target="Auth_line">
                    <mxGeometry width="50" height="50" relative="1" as="geometry">
                        <mxPoint x="390" y="340" as="sourcePoint"/>
                        <mxPoint x="440" y="290" as="targetPoint"/>
                    </mxGeometry>
                </mxCell>
                
                <!-- Registration Flow Section -->
                <mxCell id="reg_title" value="&lt;b&gt;User Registration Workflow&lt;/b&gt;" style="text;html=1;strokeColor=none;fillColor=none;align=left;verticalAlign=middle;whiteSpace=wrap;rounded=0;fontSize=12;fontColor=#d32f2f;" vertex="1" parent="1">
                    <mxGeometry x="30" y="170" width="200" height="30" as="geometry"/>
                </mxCell>
                
                <!-- Registration Messages -->
                <mxCell id="msg1" value="1: GET /register" style="html=1;verticalAlign=bottom;endArrow=block;edgeStyle=elbowEdgeStyle;elbow=vertical;curved=0;rounded=0;" edge="1" parent="1" source="User_line" target="UI_line">
                    <mxGeometry width="80" relative="1" as="geometry">
                        <mxPoint x="75" y="200" as="sourcePoint"/>
                        <mxPoint x="205" y="200" as="targetPoint"/>
                    </mxGeometry>
                </mxCell>
                <mxCell id="msg2" value="2: show registration form" style="html=1;verticalAlign=bottom;endArrow=open;dashed=1;endSize=8;edgeStyle=elbowEdgeStyle;elbow=vertical;curved=0;rounded=0;" edge="1" parent="1">
                    <mxGeometry relative="1" as="geometry">
                        <mxPoint x="205" y="230" as="sourcePoint"/>
                        <mxPoint x="75" y="230" as="targetPoint"/>
                    </mxGeometry>
                </mxCell>
                <mxCell id="msg3" value="3: fill form (name, email, password, password_confirmation)" style="html=1;verticalAlign=bottom;endArrow=block;edgeStyle=elbowEdgeStyle;elbow=vertical;curved=0;rounded=0;" edge="1" parent="1" source="User_line" target="UI_line">
                    <mxGeometry width="80" relative="1" as="geometry">
                        <mxPoint x="75" y="260" as="sourcePoint"/>
                        <mxPoint x="205" y="260" as="targetPoint"/>
                    </mxGeometry>
                </mxCell>
                <mxCell id="msg4" value="4: POST /register" style="html=1;verticalAlign=bottom;endArrow=block;edgeStyle=elbowEdgeStyle;elbow=vertical;curved=0;rounded=0;" edge="1" parent="1">
                    <mxGeometry width="80" relative="1" as="geometry">
                        <mxPoint x="215" y="290" as="sourcePoint"/>
                        <mxPoint x="405" y="290" as="targetPoint"/>
                    </mxGeometry>
                </mxCell>
                <mxCell id="msg5" value="5: validate([name, email, password])" style="html=1;verticalAlign=bottom;endArrow=block;edgeStyle=elbowEdgeStyle;elbow=vertical;curved=0;rounded=0;" edge="1" parent="1">
                    <mxGeometry width="80" relative="1" as="geometry">
                        <mxPoint x="410" y="320" as="sourcePoint"/>
                        <mxPoint x="410" y="350" as="targetPoint"/>
                        <Array as="points">
                            <mxPoint x="470" y="320"/>
                            <mxPoint x="470" y="350"/>
                        </Array>
                    </mxGeometry>
                </mxCell>
                <mxCell id="msg6" value="6: User::create(validated_data)" style="html=1;verticalAlign=bottom;endArrow=block;edgeStyle=elbowEdgeStyle;elbow=vertical;curved=0;rounded=0;" edge="1" parent="1">
                    <mxGeometry width="80" relative="1" as="geometry">
                        <mxPoint x="415" y="380" as="sourcePoint"/>
                        <mxPoint x="1015" y="380" as="targetPoint"/>
                    </mxGeometry>
                </mxCell>
                <mxCell id="msg7" value="7: Hash::make(password)" style="html=1;verticalAlign=bottom;endArrow=block;edgeStyle=elbowEdgeStyle;elbow=vertical;curved=0;rounded=0;" edge="1" parent="1">
                    <mxGeometry width="80" relative="1" as="geometry">
                        <mxPoint x="1020" y="410" as="sourcePoint"/>
                        <mxPoint x="1020" y="440" as="targetPoint"/>
                        <Array as="points">
                            <mxPoint x="1080" y="410"/>
                            <mxPoint x="1080" y="440"/>
                        </Array>
                    </mxGeometry>
                </mxCell>
                <mxCell id="msg8" value="8: save to database" style="html=1;verticalAlign=bottom;endArrow=block;edgeStyle=elbowEdgeStyle;elbow=vertical;curved=0;rounded=0;" edge="1" parent="1">
                    <mxGeometry width="80" relative="1" as="geometry">
                        <mxPoint x="1020" y="470" as="sourcePoint"/>
                        <mxPoint x="1020" y="500" as="targetPoint"/>
                        <Array as="points">
                            <mxPoint x="1080" y="470"/>
                            <mxPoint x="1080" y="500"/>
                        </Array>
                    </mxGeometry>
                </mxCell>
                <mxCell id="msg9" value="9: $user created" style="html=1;verticalAlign=bottom;endArrow=open;dashed=1;endSize=8;edgeStyle=elbowEdgeStyle;elbow=vertical;curved=0;rounded=0;" edge="1" parent="1">
                    <mxGeometry relative="1" as="geometry">
                        <mxPoint x="1015" y="530" as="sourcePoint"/>
                        <mxPoint x="415" y="530" as="targetPoint"/>
                    </mxGeometry>
                </mxCell>
                <mxCell id="msg10" value="10: event(new Registered($user))" style="html=1;verticalAlign=bottom;endArrow=block;edgeStyle=elbowEdgeStyle;elbow=vertical;curved=0;rounded=0;" edge="1" parent="1">
                    <mxGeometry width="80" relative="1" as="geometry">
                        <mxPoint x="410" y="560" as="sourcePoint"/>
                        <mxPoint x="410" y="590" as="targetPoint"/>
                        <Array as="points">
                            <mxPoint x="470" y="560"/>
                            <mxPoint x="470" y="590"/>
                        </Array>
                    </mxGeometry>
                </mxCell>
                <mxCell id="msg11" value="11: Auth::login($user)" style="html=1;verticalAlign=bottom;endArrow=block;edgeStyle=elbowEdgeStyle;elbow=vertical;curved=0;rounded=0;" edge="1" parent="1">
                    <mxGeometry width="80" relative="1" as="geometry">
                        <mxPoint x="415" y="620" as="sourcePoint"/>
                        <mxPoint x="1165" y="620" as="targetPoint"/>
                    </mxGeometry>
                </mxCell>
                <mxCell id="msg12" value="12: session established" style="html=1;verticalAlign=bottom;endArrow=open;dashed=1;endSize=8;edgeStyle=elbowEdgeStyle;elbow=vertical;curved=0;rounded=0;" edge="1" parent="1">
                    <mxGeometry relative="1" as="geometry">
                        <mxPoint x="1165" y="650" as="sourcePoint"/>
                        <mxPoint x="415" y="650" as="targetPoint"/>
                    </mxGeometry>
                </mxCell>
                <mxCell id="msg13" value="13: redirect(route('dashboard'))" style="html=1;verticalAlign=bottom;endArrow=open;dashed=1;endSize=8;edgeStyle=elbowEdgeStyle;elbow=vertical;curved=0;rounded=0;" edge="1" parent="1">
                    <mxGeometry relative="1" as="geometry">
                        <mxPoint x="405" y="680" as="sourcePoint"/>
                        <mxPoint x="215" y="680" as="targetPoint"/>
                    </mxGeometry>
                </mxCell>                <mxCell id="msg14" value="14: redirect to dashboard" style="html=1;verticalAlign=bottom;endArrow=open;dashed=1;endSize=8;edgeStyle=elbowEdgeStyle;elbow=vertical;curved=0;rounded=0;" edge="1" parent="1">
                    <mxGeometry relative="1" as="geometry">
                        <mxPoint x="205" y="710" as="sourcePoint"/>
                        <mxPoint x="75" y="710" as="targetPoint"/>
                    </mxGeometry>
                </mxCell>
                
                <!-- Login Flow Section -->
                <mxCell id="login_title" value="&lt;b&gt;User Login Workflow&lt;/b&gt;" style="text;html=1;strokeColor=none;fillColor=none;align=left;verticalAlign=middle;whiteSpace=wrap;rounded=0;fontSize=12;fontColor=#1976d2;" vertex="1" parent="1">
                    <mxGeometry x="30" y="740" width="200" height="30" as="geometry"/>
                </mxCell>
                
                <!-- Login Messages -->
                <mxCell id="msg15" value="15: GET /login" style="html=1;verticalAlign=bottom;endArrow=block;edgeStyle=elbowEdgeStyle;elbow=vertical;curved=0;rounded=0;" edge="1" parent="1" source="User_line" target="UI_line">
                    <mxGeometry width="80" relative="1" as="geometry">
                        <mxPoint x="75" y="770" as="sourcePoint"/>
                        <mxPoint x="205" y="770" as="targetPoint"/>
                    </mxGeometry>
                </mxCell>
                <mxCell id="msg16" value="16: show login form" style="html=1;verticalAlign=bottom;endArrow=open;dashed=1;endSize=8;edgeStyle=elbowEdgeStyle;elbow=vertical;curved=0;rounded=0;" edge="1" parent="1">
                    <mxGeometry relative="1" as="geometry">
                        <mxPoint x="205" y="800" as="sourcePoint"/>
                        <mxPoint x="75" y="800" as="targetPoint"/>
                    </mxGeometry>
                </mxCell>
                <mxCell id="msg17" value="17: fill form (email, password, remember_me)" style="html=1;verticalAlign=bottom;endArrow=block;edgeStyle=elbowEdgeStyle;elbow=vertical;curved=0;rounded=0;" edge="1" parent="1" source="User_line" target="UI_line">
                    <mxGeometry width="80" relative="1" as="geometry">
                        <mxPoint x="75" y="830" as="sourcePoint"/>
                        <mxPoint x="205" y="830" as="targetPoint"/>
                    </mxGeometry>
                </mxCell>
                <mxCell id="msg18" value="18: POST /login" style="html=1;verticalAlign=bottom;endArrow=block;edgeStyle=elbowEdgeStyle;elbow=vertical;curved=0;rounded=0;" edge="1" parent="1">
                    <mxGeometry width="80" relative="1" as="geometry">
                        <mxPoint x="215" y="860" as="sourcePoint"/>
                        <mxPoint x="645" y="860" as="targetPoint"/>
                    </mxGeometry>
                </mxCell>
                <mxCell id="msg19" value="19: store(LoginRequest $request)" style="html=1;verticalAlign=bottom;endArrow=block;edgeStyle=elbowEdgeStyle;elbow=vertical;curved=0;rounded=0;" edge="1" parent="1">
                    <mxGeometry width="80" relative="1" as="geometry">
                        <mxPoint x="655" y="890" as="sourcePoint"/>
                        <mxPoint x="855" y="890" as="targetPoint"/>
                    </mxGeometry>
                </mxCell>
                <mxCell id="msg20" value="20: validate([email, password])" style="html=1;verticalAlign=bottom;endArrow=block;edgeStyle=elbowEdgeStyle;elbow=vertical;curved=0;rounded=0;" edge="1" parent="1">
                    <mxGeometry width="80" relative="1" as="geometry">
                        <mxPoint x="860" y="920" as="sourcePoint"/>
                        <mxPoint x="860" y="950" as="targetPoint"/>
                        <Array as="points">
                            <mxPoint x="920" y="920"/>
                            <mxPoint x="920" y="950"/>
                        </Array>
                    </mxGeometry>
                </mxCell>
                <mxCell id="msg21" value="21: authenticate()" style="html=1;verticalAlign=bottom;endArrow=block;edgeStyle=elbowEdgeStyle;elbow=vertical;curved=0;rounded=0;" edge="1" parent="1">
                    <mxGeometry width="80" relative="1" as="geometry">
                        <mxPoint x="860" y="980" as="sourcePoint"/>
                        <mxPoint x="860" y="1010" as="targetPoint"/>
                        <Array as="points">
                            <mxPoint x="920" y="980"/>
                            <mxPoint x="920" y="1010"/>
                        </Array>
                    </mxGeometry>
                </mxCell>
                <mxCell id="msg22" value="22: Auth::attempt(credentials)" style="html=1;verticalAlign=bottom;endArrow=block;edgeStyle=elbowEdgeStyle;elbow=vertical;curved=0;rounded=0;" edge="1" parent="1">
                    <mxGeometry width="80" relative="1" as="geometry">
                        <mxPoint x="865" y="1040" as="sourcePoint"/>
                        <mxPoint x="1165" y="1040" as="targetPoint"/>
                    </mxGeometry>
                </mxCell>
                <mxCell id="msg23" value="23: User::where('email', $email)->first()" style="html=1;verticalAlign=bottom;endArrow=block;edgeStyle=elbowEdgeStyle;elbow=vertical;curved=0;rounded=0;" edge="1" parent="1">
                    <mxGeometry width="80" relative="1" as="geometry">
                        <mxPoint x="1170" y="1070" as="sourcePoint"/>
                        <mxPoint x="1015" y="1070" as="targetPoint"/>
                    </mxGeometry>
                </mxCell>
                <mxCell id="msg24" value="24: Hash::check(password, $user->password)" style="html=1;verticalAlign=bottom;endArrow=block;edgeStyle=elbowEdgeStyle;elbow=vertical;curved=0;rounded=0;" edge="1" parent="1">
                    <mxGeometry width="80" relative="1" as="geometry">
                        <mxPoint x="1170" y="1100" as="sourcePoint"/>
                        <mxPoint x="1170" y="1130" as="targetPoint"/>
                        <Array as="points">
                            <mxPoint x="1230" y="1100"/>
                            <mxPoint x="1230" y="1130"/>
                        </Array>
                    </mxGeometry>
                </mxCell>
                <mxCell id="msg25" value="25: authentication success" style="html=1;verticalAlign=bottom;endArrow=open;dashed=1;endSize=8;edgeStyle=elbowEdgeStyle;elbow=vertical;curved=0;rounded=0;" edge="1" parent="1">
                    <mxGeometry relative="1" as="geometry">
                        <mxPoint x="1165" y="1160" as="sourcePoint"/>
                        <mxPoint x="865" y="1160" as="targetPoint"/>
                    </mxGeometry>
                </mxCell>
                <mxCell id="msg26" value="26: $request->session()->regenerate()" style="html=1;verticalAlign=bottom;endArrow=block;edgeStyle=elbowEdgeStyle;elbow=vertical;curved=0;rounded=0;" edge="1" parent="1">
                    <mxGeometry width="80" relative="1" as="geometry">
                        <mxPoint x="655" y="1190" as="sourcePoint"/>
                        <mxPoint x="655" y="1220" as="targetPoint"/>
                        <Array as="points">
                            <mxPoint x="715" y="1190"/>
                            <mxPoint x="715" y="1220"/>
                        </Array>
                    </mxGeometry>
                </mxCell>
                <mxCell id="msg27" value="27: redirect()->intended(route('dashboard'))" style="html=1;verticalAlign=bottom;endArrow=open;dashed=1;endSize=8;edgeStyle=elbowEdgeStyle;elbow=vertical;curved=0;rounded=0;" edge="1" parent="1">
                    <mxGeometry relative="1" as="geometry">
                        <mxPoint x="645" y="1250" as="sourcePoint"/>
                        <mxPoint x="215" y="1250" as="targetPoint"/>
                    </mxGeometry>
                </mxCell>
                <mxCell id="msg28" value="28: redirect to dashboard" style="html=1;verticalAlign=bottom;endArrow=open;dashed=1;endSize=8;edgeStyle=elbowEdgeStyle;elbow=vertical;curved=0;rounded=0;" edge="1" parent="1">
                    <mxGeometry relative="1" as="geometry">
                        <mxPoint x="205" y="1280" as="sourcePoint"/>
                        <mxPoint x="75" y="1280" as="targetPoint"/>
                    </mxGeometry>
                </mxCell>
                
                <!-- Logout Flow Section -->
                <mxCell id="logout_title" value="&lt;b&gt;User Logout Workflow&lt;/b&gt;" style="text;html=1;strokeColor=none;fillColor=none;align=left;verticalAlign=middle;whiteSpace=wrap;rounded=0;fontSize=12;fontColor=#388e3c;" vertex="1" parent="1">
                    <mxGeometry x="30" y="1310" width="200" height="30" as="geometry"/>
                </mxCell>
                
                <!-- Logout Messages -->
                <mxCell id="msg29" value="29: POST /logout" style="html=1;verticalAlign=bottom;endArrow=block;edgeStyle=elbowEdgeStyle;elbow=vertical;curved=0;rounded=0;" edge="1" parent="1" source="User_line" target="UI_line">
                    <mxGeometry width="80" relative="1" as="geometry">
                        <mxPoint x="75" y="1340" as="sourcePoint"/>
                        <mxPoint x="205" y="1340" as="targetPoint"/>
                    </mxGeometry>
                </mxCell>
                <mxCell id="msg30" value="30: destroy(Request $request)" style="html=1;verticalAlign=bottom;endArrow=block;edgeStyle=elbowEdgeStyle;elbow=vertical;curved=0;rounded=0;" edge="1" parent="1">
                    <mxGeometry width="80" relative="1" as="geometry">
                        <mxPoint x="215" y="1370" as="sourcePoint"/>
                        <mxPoint x="645" y="1370" as="targetPoint"/>
                    </mxGeometry>
                </mxCell>
                <mxCell id="msg31" value="31: Auth::guard('web')->logout()" style="html=1;verticalAlign=bottom;endArrow=block;edgeStyle=elbowEdgeStyle;elbow=vertical;curved=0;rounded=0;" edge="1" parent="1">
                    <mxGeometry width="80" relative="1" as="geometry">
                        <mxPoint x="655" y="1400" as="sourcePoint"/>
                        <mxPoint x="1165" y="1400" as="targetPoint"/>
                    </mxGeometry>
                </mxCell>
                <mxCell id="msg32" value="32: $request->session()->invalidate()" style="html=1;verticalAlign=bottom;endArrow=block;edgeStyle=elbowEdgeStyle;elbow=vertical;curved=0;rounded=0;" edge="1" parent="1">
                    <mxGeometry width="80" relative="1" as="geometry">
                        <mxPoint x="655" y="1430" as="sourcePoint"/>
                        <mxPoint x="655" y="1460" as="targetPoint"/>
                        <Array as="points">
                            <mxPoint x="715" y="1430"/>
                            <mxPoint x="715" y="1460"/>
                        </Array>
                    </mxGeometry>
                </mxCell>
                <mxCell id="msg33" value="33: $request->session()->regenerateToken()" style="html=1;verticalAlign=bottom;endArrow=block;edgeStyle=elbowEdgeStyle;elbow=vertical;curved=0;rounded=0;" edge="1" parent="1">
                    <mxGeometry width="80" relative="1" as="geometry">
                        <mxPoint x="655" y="1490" as="sourcePoint"/>
                        <mxPoint x="655" y="1520" as="targetPoint"/>
                        <Array as="points">
                            <mxPoint x="715" y="1490"/>
                            <mxPoint x="715" y="1520"/>
                        </Array>
                    </mxGeometry>
                </mxCell>
                <mxCell id="msg34" value="34: redirect('/')" style="html=1;verticalAlign=bottom;endArrow=open;dashed=1;endSize=8;edgeStyle=elbowEdgeStyle;elbow=vertical;curved=0;rounded=0;" edge="1" parent="1">
                    <mxGeometry relative="1" as="geometry">
                        <mxPoint x="645" y="1550" as="sourcePoint"/>
                        <mxPoint x="215" y="1550" as="targetPoint"/>
                    </mxGeometry>
                </mxCell>
                <mxCell id="msg35" value="35: redirect to welcome page" style="html=1;verticalAlign=bottom;endArrow=open;dashed=1;endSize=8;edgeStyle=elbowEdgeStyle;elbow=vertical;curved=0;rounded=0;" edge="1" parent="1">
                    <mxGeometry relative="1" as="geometry">
                        <mxPoint x="205" y="1580" as="sourcePoint"/>
                        <mxPoint x="75" y="1580" as="targetPoint"/>
                    </mxGeometry>
                </mxCell>
              </root>
        </mxGraphModel>
    </diagram>
</mxfile>